<mxfile host="app.diagrams.net" modified="2021-10-14T02:41:18.598Z" agent="5.0 (Windows NT 10.0; Win64; x64) AppleWebKit/537.36 (KHTML, like Gecko) Chrome/94.0.4606.81 Safari/537.36 Edg/94.0.992.47" etag="k9bRm9SbIDIZg3cCGfFv" version="15.1.2" type="github">
  <diagram id="YxHR39vmehlHRfoW2xAR" name="Page-1">
    <mxGraphModel dx="1038" dy="547" grid="0" gridSize="10" guides="1" tooltips="1" connect="1" arrows="1" fold="1" page="1" pageScale="1" pageWidth="1169" pageHeight="827" math="0" shadow="0">
      <root>
        <mxCell id="0" />
        <mxCell id="1" parent="0" />
        <mxCell id="G1IlKZ043ikB43BTlQFk-1" value="Brower&lt;br&gt;&lt;br&gt;&lt;br&gt;&lt;br&gt;&lt;br&gt;&lt;br&gt;&lt;br&gt;&lt;br&gt;&lt;br&gt;&lt;br&gt;" style="whiteSpace=wrap;html=1;aspect=fixed;align=left;" vertex="1" parent="1">
          <mxGeometry x="50" y="160" width="170" height="170" as="geometry" />
        </mxCell>
        <mxCell id="G1IlKZ043ikB43BTlQFk-2" value="Entity Folder&lt;br&gt;&lt;div style=&quot;text-align: left&quot;&gt;&lt;span&gt;- Icon defined&lt;/span&gt;&lt;/div&gt;&lt;div style=&quot;text-align: left&quot;&gt;&lt;span&gt;- Layer defined&lt;/span&gt;&lt;/div&gt;&lt;div style=&quot;text-align: left&quot;&gt;&lt;span&gt;- External Id&lt;/span&gt;&lt;/div&gt;&lt;br&gt;&lt;br&gt;&lt;br&gt;" style="rounded=1;whiteSpace=wrap;html=1;" vertex="1" parent="1">
          <mxGeometry x="60" y="190" width="90" height="130" as="geometry" />
        </mxCell>
        <mxCell id="G1IlKZ043ikB43BTlQFk-3" value="List layer&lt;br&gt;&lt;br&gt;&lt;div&gt;&lt;br&gt;&lt;/div&gt;&lt;div&gt;&lt;br&gt;&lt;/div&gt;&lt;div&gt;&lt;br&gt;&lt;/div&gt;&lt;div&gt;&lt;br&gt;&lt;/div&gt;&lt;div&gt;&lt;br&gt;&lt;/div&gt;&lt;div&gt;&lt;br&gt;&lt;/div&gt;&lt;div&gt;&lt;br&gt;&lt;/div&gt;&lt;div&gt;&lt;br&gt;&lt;/div&gt;&lt;div&gt;&lt;br&gt;&lt;/div&gt;" style="whiteSpace=wrap;html=1;aspect=fixed;align=left;" vertex="1" parent="1">
          <mxGeometry x="250" y="160" width="170" height="170" as="geometry" />
        </mxCell>
        <mxCell id="G1IlKZ043ikB43BTlQFk-5" value="" style="endArrow=classic;html=1;entryX=0;entryY=0.5;entryDx=0;entryDy=0;" edge="1" parent="1" source="G1IlKZ043ikB43BTlQFk-2" target="G1IlKZ043ikB43BTlQFk-3">
          <mxGeometry width="50" height="50" relative="1" as="geometry">
            <mxPoint x="390" y="220" as="sourcePoint" />
            <mxPoint x="440" y="170" as="targetPoint" />
          </mxGeometry>
        </mxCell>
        <mxCell id="G1IlKZ043ikB43BTlQFk-7" value="&lt;span style=&quot;text-align: left&quot;&gt;- Overlay A&lt;/span&gt;&lt;br style=&quot;text-align: left&quot;&gt;&lt;div style=&quot;text-align: left&quot;&gt;&lt;/div&gt;&lt;div style=&quot;text-align: left&quot;&gt;- Overlay B&lt;/div&gt;&lt;div style=&quot;text-align: left&quot;&gt;- Overlay C&lt;/div&gt;&lt;div style=&quot;text-align: left&quot;&gt;- etc...&lt;/div&gt;&lt;div style=&quot;text-align: left&quot;&gt;&lt;br&gt;&lt;/div&gt;&lt;div style=&quot;text-align: left&quot;&gt;&lt;br&gt;&lt;/div&gt;&lt;div style=&quot;text-align: left&quot;&gt;&lt;br&gt;&lt;/div&gt;&lt;div style=&quot;text-align: left&quot;&gt;&lt;br&gt;&lt;/div&gt;" style="rounded=1;whiteSpace=wrap;html=1;" vertex="1" parent="1">
          <mxGeometry x="260" y="190" width="80" height="130" as="geometry" />
        </mxCell>
        <mxCell id="G1IlKZ043ikB43BTlQFk-8" value="Overlay Entity&lt;br&gt;&lt;br&gt;&lt;br&gt;&lt;br&gt;&lt;br&gt;&lt;br&gt;&lt;br&gt;&lt;br&gt;&lt;br&gt;&lt;br&gt;" style="whiteSpace=wrap;html=1;aspect=fixed;align=center;dashed=1;" vertex="1" parent="1">
          <mxGeometry x="250" y="350" width="170" height="170" as="geometry" />
        </mxCell>
        <mxCell id="G1IlKZ043ikB43BTlQFk-32" value="" style="edgeStyle=orthogonalEdgeStyle;rounded=0;orthogonalLoop=1;jettySize=auto;html=1;" edge="1" parent="1" source="G1IlKZ043ikB43BTlQFk-9" target="G1IlKZ043ikB43BTlQFk-31">
          <mxGeometry relative="1" as="geometry" />
        </mxCell>
        <mxCell id="G1IlKZ043ikB43BTlQFk-9" value="- Layer defined&lt;br&gt;- Toggling" style="rounded=1;whiteSpace=wrap;html=1;align=left;" vertex="1" parent="1">
          <mxGeometry x="260" y="380" width="90" height="130" as="geometry" />
        </mxCell>
        <mxCell id="G1IlKZ043ikB43BTlQFk-11" value="" style="endArrow=classic;html=1;" edge="1" parent="1">
          <mxGeometry width="50" height="50" relative="1" as="geometry">
            <mxPoint x="300" y="320" as="sourcePoint" />
            <mxPoint x="300" y="380" as="targetPoint" />
          </mxGeometry>
        </mxCell>
        <mxCell id="G1IlKZ043ikB43BTlQFk-12" value="Edit Toolbar&lt;br&gt;&lt;br&gt;&lt;br&gt;&lt;br&gt;&lt;br&gt;&lt;br&gt;&lt;br&gt;&lt;br&gt;&lt;br&gt;&lt;br&gt;" style="whiteSpace=wrap;html=1;aspect=fixed;align=left;" vertex="1" parent="1">
          <mxGeometry x="510" y="160" width="170" height="170" as="geometry" />
        </mxCell>
        <mxCell id="G1IlKZ043ikB43BTlQFk-13" value="Groups&lt;br&gt;- Entity A&lt;br&gt;- Entity B&lt;br&gt;- Entity C&lt;br&gt;- Entity D&lt;br&gt;- etc&lt;br&gt;&lt;br&gt;" style="rounded=1;whiteSpace=wrap;html=1;align=left;" vertex="1" parent="1">
          <mxGeometry x="520" y="190" width="100" height="130" as="geometry" />
        </mxCell>
        <mxCell id="G1IlKZ043ikB43BTlQFk-14" value="" style="endArrow=classic;html=1;exitX=1;exitY=0.5;exitDx=0;exitDy=0;entryX=0;entryY=0.5;entryDx=0;entryDy=0;" edge="1" parent="1" source="G1IlKZ043ikB43BTlQFk-9" target="G1IlKZ043ikB43BTlQFk-13">
          <mxGeometry width="50" height="50" relative="1" as="geometry">
            <mxPoint x="460" y="240" as="sourcePoint" />
            <mxPoint x="510" y="190" as="targetPoint" />
          </mxGeometry>
        </mxCell>
        <mxCell id="G1IlKZ043ikB43BTlQFk-18" value="" style="endArrow=none;html=1;" edge="1" parent="1">
          <mxGeometry width="50" height="50" relative="1" as="geometry">
            <mxPoint x="100" y="110" as="sourcePoint" />
            <mxPoint x="590" y="110" as="targetPoint" />
          </mxGeometry>
        </mxCell>
        <mxCell id="G1IlKZ043ikB43BTlQFk-19" value="" style="endArrow=none;html=1;" edge="1" parent="1">
          <mxGeometry width="50" height="50" relative="1" as="geometry">
            <mxPoint x="100" y="140" as="sourcePoint" />
            <mxPoint x="100" y="110" as="targetPoint" />
          </mxGeometry>
        </mxCell>
        <mxCell id="G1IlKZ043ikB43BTlQFk-20" value="" style="endArrow=none;html=1;" edge="1" parent="1">
          <mxGeometry width="50" height="50" relative="1" as="geometry">
            <mxPoint x="590.5" y="140" as="sourcePoint" />
            <mxPoint x="590.5" y="110" as="targetPoint" />
          </mxGeometry>
        </mxCell>
        <mxCell id="G1IlKZ043ikB43BTlQFk-21" value="Register in initiator" style="rounded=0;whiteSpace=wrap;html=1;strokeColor=none;fillColor=none;" vertex="1" parent="1">
          <mxGeometry x="250" y="70" width="120" height="60" as="geometry" />
        </mxCell>
        <mxCell id="G1IlKZ043ikB43BTlQFk-23" value="Entity A&lt;br&gt;- Entity Command&lt;br&gt;- Map (show commands)" style="whiteSpace=wrap;html=1;aspect=fixed;fillColor=none;gradientColor=none;align=left;" vertex="1" parent="1">
          <mxGeometry x="510" y="380" width="100" height="100" as="geometry" />
        </mxCell>
        <mxCell id="G1IlKZ043ikB43BTlQFk-24" value="Entity B&lt;br&gt;- Entity Command&lt;br&gt;- Map (show commands)" style="whiteSpace=wrap;html=1;aspect=fixed;fillColor=none;gradientColor=none;align=left;" vertex="1" parent="1">
          <mxGeometry x="660" y="382" width="100" height="100" as="geometry" />
        </mxCell>
        <mxCell id="G1IlKZ043ikB43BTlQFk-25" value="Entity C&lt;br&gt;- Entity Command&lt;br&gt;- Map (show commands)" style="whiteSpace=wrap;html=1;aspect=fixed;fillColor=none;gradientColor=none;align=left;" vertex="1" parent="1">
          <mxGeometry x="760" y="260" width="100" height="100" as="geometry" />
        </mxCell>
        <mxCell id="G1IlKZ043ikB43BTlQFk-26" value="Entity D&lt;br&gt;- Entity Command&lt;br&gt;- Map (show commands)" style="whiteSpace=wrap;html=1;aspect=fixed;fillColor=none;gradientColor=none;align=left;" vertex="1" parent="1">
          <mxGeometry x="760" y="150" width="100" height="100" as="geometry" />
        </mxCell>
        <mxCell id="G1IlKZ043ikB43BTlQFk-27" value="" style="endArrow=classic;html=1;entryX=0.352;entryY=0.024;entryDx=0;entryDy=0;entryPerimeter=0;" edge="1" parent="1" target="G1IlKZ043ikB43BTlQFk-23">
          <mxGeometry width="50" height="50" relative="1" as="geometry">
            <mxPoint x="545" y="320" as="sourcePoint" />
            <mxPoint x="595" y="270" as="targetPoint" />
          </mxGeometry>
        </mxCell>
        <mxCell id="G1IlKZ043ikB43BTlQFk-28" value="" style="endArrow=classic;html=1;entryX=0.436;entryY=0.012;entryDx=0;entryDy=0;entryPerimeter=0;" edge="1" parent="1" target="G1IlKZ043ikB43BTlQFk-24">
          <mxGeometry width="50" height="50" relative="1" as="geometry">
            <mxPoint x="590" y="320" as="sourcePoint" />
            <mxPoint x="640" y="270" as="targetPoint" />
          </mxGeometry>
        </mxCell>
        <mxCell id="G1IlKZ043ikB43BTlQFk-29" value="" style="endArrow=classic;html=1;exitX=1;exitY=0.75;exitDx=0;exitDy=0;entryX=0;entryY=0.25;entryDx=0;entryDy=0;" edge="1" parent="1" source="G1IlKZ043ikB43BTlQFk-13" target="G1IlKZ043ikB43BTlQFk-25">
          <mxGeometry width="50" height="50" relative="1" as="geometry">
            <mxPoint x="480" y="200" as="sourcePoint" />
            <mxPoint x="530" y="150" as="targetPoint" />
          </mxGeometry>
        </mxCell>
        <mxCell id="G1IlKZ043ikB43BTlQFk-30" value="" style="endArrow=classic;html=1;entryX=0;entryY=0.75;entryDx=0;entryDy=0;" edge="1" parent="1" target="G1IlKZ043ikB43BTlQFk-26">
          <mxGeometry width="50" height="50" relative="1" as="geometry">
            <mxPoint x="620" y="225" as="sourcePoint" />
            <mxPoint x="670" y="175" as="targetPoint" />
          </mxGeometry>
        </mxCell>
        <mxCell id="G1IlKZ043ikB43BTlQFk-31" value="instance/overlay" style="shape=process;whiteSpace=wrap;html=1;backgroundOutline=1;rounded=1;align=left;" vertex="1" parent="1">
          <mxGeometry x="75" y="415" width="120" height="60" as="geometry" />
        </mxCell>
      </root>
    </mxGraphModel>
  </diagram>
</mxfile>
